<?xml version="1.0" encoding="UTF-8" standalone="no"?>
<svg width="61px" height="61px" viewBox="0 0 61 61" version="1.1" xmlns="http://www.w3.org/2000/svg" xmlns:xlink="http://www.w3.org/1999/xlink">
    <!-- Generator: sketchtool 41.2 (35397) - http://www.bohemiancoding.com/sketch -->
    <title>6ECBA573-EA84-47F6-8BB5-D4BBEA443994</title>
    <desc>Created with sketchtool.</desc>
    <defs></defs>
    <g id="Page-1" stroke="none" stroke-width="1" fill="none" fill-rule="evenodd">
        <g id="design-end-year" transform="translate(-351.000000, -10861.000000)">
            <g id="ic_exit_to_app" transform="translate(381.500000, 10891.500000) scale(-1, 1) translate(-381.500000, -10891.500000) translate(341.000000, 10851.000000)">
                <g id="Icon-24px">
                    <polygon id="Shape" points="0 0 81 0 81 81 0 81"></polygon>
                    <path d="M34.05375,52.61625 L38.8125,57.375 L55.6875,40.5 L38.8125,23.625 L34.05375,28.38375 L42.76125,37.125 L10.125,37.125 L10.125,43.875 L42.76125,43.875 L34.05375,52.61625 L34.05375,52.61625 Z M64.125,10.125 L16.875,10.125 C13.12875,10.125 10.125,13.1625 10.125,16.875 L10.125,30.375 L16.875,30.375 L16.875,16.875 L64.125,16.875 L64.125,64.125 L16.875,64.125 L16.875,50.625 L10.125,50.625 L10.125,64.125 C10.125,67.8375 13.12875,70.875 16.875,70.875 L64.125,70.875 C67.8375,70.875 70.875,67.8375 70.875,64.125 L70.875,16.875 C70.875,13.1625 67.8375,10.125 64.125,10.125 L64.125,10.125 Z" id="Shape" fill="#FFFFFF"></path>
                </g>
            </g>
        </g>
    </g>
</svg>