<svg width="84" height="75" viewBox="0 0 84 75" xmlns="http://www.w3.org/2000/svg"><title>7FD75E98-47A5-4E79-A62D-7FDCB581C2B6</title><path d="M80.085.109H2.925A2.931 2.931 0 0 0 0 3.039v49.406l.002.004v7.54c0 .956.772 1.728 1.724 1.728H32.28c-.154 3.397-.904 10.215-4.423 11.71 0 0-1.367 1.27 2.456 1.27h22.105c3.82 0 2.455-1.27 2.455-1.27-3.52-1.495-4.269-8.314-4.423-11.71h30.868c.953 0 1.683-.773 1.683-1.727v-7.463c.001-.028.008-.053.008-.082V3.04A2.932 2.932 0 0 0 80.085.109zm-40.6 55.686c0-1.118.904-2.024 2.02-2.024s2.02.906 2.02 2.024a2.022 2.022 0 0 1-2.02 2.023 2.022 2.022 0 0 1-2.02-2.023zm41.018-5.307H2.507V3.04a.42.42 0 0 1 .418-.419h77.16a.42.42 0 0 1 .418.419v47.448z" fill="#FFF" fill-rule="evenodd"/></svg>