<svg width="571" height="142" viewBox="0 0 571 142" xmlns="http://www.w3.org/2000/svg" xmlns:xlink="http://www.w3.org/1999/xlink"><title>4729F5C8-7BEF-4499-BCD2-2DC387D0491E</title><defs><path id="a" d="M67.681 73.2H.233V.14H67.68z"/></defs><g fill="none" fill-rule="evenodd"><g transform="translate(0 68.721)"><mask id="b" fill="#fff"><use xlink:href="#a"/></mask><path d="M58.716 22.47c-6.372-6.62-13.63-9.994-21.586-9.994-6.788 0-12.602 2.365-17.275 6.98-4.66 4.65-7.02 10.443-7.02 17.233 0 4.72 1.036 9.001 3.104 12.654 2.077 3.706 5.042 6.609 8.81 8.7 3.75 2.067 8.015 3.142 12.625 3.142 3.932 0 7.572-.742 10.832-2.192 3.183-1.445 6.73-4.093 10.499-7.791.388.394 8.29 8.618 8.713 9.013-5.085 4.912-9.955 8.355-14.485 10.265-4.599 1.944-9.92 2.952-15.784 2.952-10.84 0-19.847-3.501-26.744-10.334C3.485 56.245 0 47.372 0 36.65c0-6.926 1.583-13.16 4.72-18.54 3.155-5.36 7.726-9.767 13.575-13.056C24.18 1.785 30.59.14 37.343.14c5.752 0 11.376 1.221 16.7 3.64 5.248 2.39 9.804 5.825 13.638 10.196l-8.965 8.495" fill="#FFF" mask="url(#b)"/></g><path d="M78.933 94.577c-5.892 5.369-8.88 12.128-8.88 20.129 0 7.459 2.639 13.901 7.855 19.123 5.224 5.198 11.589 7.884 18.947 7.884 5.022 0 9.66-1.217 13.824-3.594 4.165-2.358 7.49-5.7 9.901-9.886 2.398-4.229 3.613-8.793 3.613-13.62 0-4.793-1.195-9.338-3.594-13.477-2.394-4.155-5.755-7.482-10.04-9.89-4.277-2.42-8.891-3.622-13.739-3.622-6.714 0-12.737 2.346-17.887 6.953m7.653 31.302c-2.701-2.876-4.087-6.628-4.087-11.212 0-4.468 1.405-8.182 4.141-11.046 2.756-2.89 6.253-4.344 10.39-4.344 4.215 0 7.754 1.438 10.47 4.286 2.722 2.833 4.088 6.57 4.088 11.104 0 4.51-1.39 8.263-4.184 11.158-2.74 2.902-6.252 4.348-10.428 4.348-4.165 0-7.658-1.446-10.39-4.294m45.384 14.505h12.502V70.136H131.97zm29.186-45.807c-5.895 5.369-8.872 12.128-8.872 20.129 0 7.459 2.643 13.901 7.852 19.123 5.22 5.198 11.588 7.884 18.962 7.884 5.01 0 9.649-1.217 13.817-3.594 4.14-2.358 7.479-5.7 9.885-9.886 2.406-4.229 3.625-8.793 3.625-13.62 0-4.793-1.207-9.338-3.598-13.477-2.402-4.155-5.771-7.482-10.033-9.89-4.284-2.42-8.899-3.622-13.746-3.622-6.695 0-12.722 2.346-17.892 6.953m7.677 31.302c-2.732-2.876-4.102-6.628-4.102-11.212 0-4.468 1.39-8.182 4.145-11.046 2.76-2.89 6.248-4.344 10.378-4.344 4.23 0 7.75 1.438 10.47 4.286 2.713 2.833 4.099 6.57 4.099 11.104 0 4.51-1.397 8.263-4.172 11.158-2.76 2.902-6.284 4.348-10.448 4.348-4.168 0-7.657-1.446-10.37-4.294M236.13 89.07c-2.371.931-5.053 2.674-8.003 5.132l-.5.433V88.95h-12.513v51.434h12.513v-20.585c0-5.495.198-8.962.59-10.636.745-3.165 2.103-5.685 4.032-7.478 1.96-1.805 4.335-2.713 7.064-2.713 2.095 0 3.888.549 5.34 1.638 1.417 1.125 2.445 2.744 3.023 4.831.575 2.091.85 6.15.85 12.465v22.478h12.323v-34.096c0-5.875-1.49-10.397-4.448-13.357-3.544-3.548-7.89-5.31-12.959-5.31a19.27 19.27 0 0 0-7.312 1.449m36.583 51.314h12.508V88.95h-12.508zm29.651-45.196c-4.684 5.067-7.06 11.637-7.06 19.583 0 7.602 2.457 14.065 7.27 19.19 4.874 5.136 10.669 7.752 17.297 7.752 2.93 0 5.71-.525 8.24-1.6 2.519-1.028 5.065-2.779 7.607-5.156l.5-.51v5.937h12.513V88.95h-12.513v6.192l-.516-.56c-2.305-2.3-4.836-4.063-7.537-5.23-2.693-1.16-5.6-1.731-8.682-1.731-6.698 0-12.446 2.554-17.119 7.567m5.387 19.425c0-4.51 1.366-8.271 4.102-11.17 2.71-2.914 6.179-4.355 10.293-4.355 4.207 0 7.735 1.403 10.486 4.29 2.764 2.84 4.134 6.6 4.134 11.185 0 4.688-1.37 8.525-4.134 11.42-2.751 2.907-6.256 4.368-10.432 4.368-4.063 0-7.53-1.504-10.293-4.445-2.759-2.937-4.156-6.74-4.156-11.293m53.489 25.771h12.5v-71.52h-12.5zm46.836-71.558v71.558h32.399v-12.186H420.91V68.826h-12.834m75.784 1.136c-1.975 1.616-3.17 3.846-3.504 6.617-.17 1.229-.299 5.287-.33 12.05v.325h-4.669V99.37h4.67v41.014h12.523V99.37h8.279V88.954h-8.279l.035-6.83c0-1.607.284-2.65.854-3.188.8-.707 1.999-1.066 3.59-1.066 1.149 0 2.624.286 4.355.753V69.31c-3.28-1.163-6.3-1.778-8.911-1.778-3.699 0-6.602.812-8.612 2.431m27.769 25.418c-5.069 5.148-7.642 11.738-7.642 19.568 0 7.61 2.573 14.053 7.661 19.127 5.06 5.06 11.725 7.637 19.832 7.637 5.208 0 9.757-.943 13.545-2.779 3.69-1.789 6.873-4.583 9.536-8.282-.676-.301-10.173-4.734-10.51-4.893-3.544 3.37-7.786 5.09-12.676 5.09-4.164 0-7.653-1.117-10.339-3.362-2.662-2.223-4.362-5.272-4.967-9.036l-.063-.364h42.187c.031-.467.059-2.183.059-2.183 0-8.453-2.566-15.375-7.658-20.523-5.06-5.152-11.724-7.757-19.863-7.757-7.61 0-14.057 2.605-19.102 7.757m19.727 2.655c3.427 0 6.489.936 9.09 2.772 2.6 1.859 4.358 4.309 5.243 7.235l.124.41h-29.376l.21-.441c1.482-3.24 3.143-5.554 4.89-6.876 2.81-2.048 6.124-3.1 9.819-3.1m-82.433-45.219c0 6.648 3.904 12.07 8.674 12.07 4.773 0 8.647-5.422 8.647-12.07 0-6.666-3.874-12.073-8.647-12.073-4.77 0-8.674 5.407-8.674 12.073m-64.992-18.543c0 11.046 3.151 20.387 6.838 20.387 3.73 0 6.854-9.341 6.854-20.387 0-11.054-3.124-20.383-6.854-20.383-3.687 0-6.838 9.33-6.838 20.383M268.836 57.332c0 5.975 4.878 10.829 10.874 10.829 6.012 0 10.887-4.854 10.887-10.83 0-5.998-4.875-10.836-10.887-10.836-5.996 0-10.874 4.838-10.874 10.837m51.338-.356c5.228 0 9.505-6.203 9.505-13.801 0-7.618-4.277-13.825-9.505-13.825-5.243 0-9.512 6.207-9.512 13.825 0 7.598 4.269 13.801 9.512 13.801m96.96-41.08c0 8.445 3.637 15.325 8.1 15.325 4.451 0 8.096-6.88 8.096-15.325 0-8.471-3.47-15.37-7.922-15.37-4.474 0-8.274 6.899-8.274 15.37m-67.701 7.56c0 9.001 3.167 16.325 7.087 16.325 3.928 0 7.118-7.324 7.118-16.325 0-8.997-3.19-16.31-7.118-16.31-3.92 0-7.087 7.313-7.087 16.31m101.909 116.928h12.52V88.95h-12.52zm112.507-6.196h.788c.826 0 1.607-.259 1.607-.97 0-.595-.412-1.043-1.495-1.043-.446 0-.71.038-.9.077v1.936zm0 3.502h-1.16v-6.223a12.447 12.447 0 0 1 2.173-.185c1.048 0 1.572.185 1.948.483.373.259.629.746.629 1.345 0 .742-.559 1.23-1.195 1.453v.074c.531.224.826.707 1.016 1.526.179.932.334 1.307.486 1.527h-1.2c-.19-.22-.341-.78-.524-1.6-.151-.707-.559-1.009-1.424-1.009h-.749v2.609zm-3.699-3.277c0 2.755 2.053 4.92 4.828 4.92 2.651.038 4.677-2.165 4.677-4.886 0-2.72-2.026-4.916-4.754-4.916-2.698 0-4.75 2.195-4.75 4.882zm10.817 0c0 3.389-2.624 5.998-6.027 5.998-3.412 0-6.101-2.609-6.101-5.998 0-3.32 2.69-5.93 6.14-5.93 3.364 0 5.988 2.61 5.988 5.93z" fill="#FFF"/></g></svg>