<svg width="61" height="61" viewBox="0 0 61 61" xmlns="http://www.w3.org/2000/svg"><title>6ECBA573-EA84-47F6-8BB5-D4BBEA443994</title><g fill="none" fill-rule="evenodd"><path d="M71-10h-81v81h81z"/><path d="M36.946 42.616l-4.758 4.759L15.311 30.5l16.876-16.875 4.758 4.759-8.707 8.741h32.636v6.75H28.239l8.707 8.741zM6.875.125h47.25a6.748 6.748 0 0 1 6.75 6.75v13.5h-6.75v-13.5H6.875v47.25h47.25v-13.5h6.75v13.5a6.748 6.748 0 0 1-6.75 6.75H6.875c-3.713 0-6.75-3.037-6.75-6.75V6.875c0-3.713 3.037-6.75 6.75-6.75z" fill="#FFF"/></g></svg>