<svg width="61" height="61" viewBox="0 0 61 61" xmlns="http://www.w3.org/2000/svg"><title>E517CDF1-2CEC-448D-B1EA-7685C8EE76CF</title><g fill="none" fill-rule="evenodd"><path d="M-10-10h81v81h-81z"/><path d="M24.054 42.616l4.759 4.759L45.688 30.5 28.811 13.625l-4.758 4.759 8.707 8.741H.125v6.75h32.636l-8.707 8.741zM54.125.125H6.875a6.748 6.748 0 0 0-6.75 6.75v13.5h6.75v-13.5h47.25v47.25H6.875v-13.5H.125v13.5a6.748 6.748 0 0 0 6.75 6.75h47.25c3.713 0 6.75-3.037 6.75-6.75V6.875c0-3.713-3.037-6.75-6.75-6.75z" fill="#FFF"/></g></svg>