<svg width="40" height="75" viewBox="0 0 40 75" xmlns="http://www.w3.org/2000/svg"><title>3679190B-ADBC-486B-99CD-36831F999CDF</title><path d="M35.832 0H3.366a3.216 3.216 0 0 0-3.21 3.22v67.977a3.215 3.215 0 0 0 3.21 3.218h32.466a3.215 3.215 0 0 0 3.211-3.218V3.219A3.216 3.216 0 0 0 35.833 0zM16.857 3.936h5.486a.335.335 0 0 1 0 .67h-5.486a.335.335 0 0 1 0-.67zM19.6 71.509a2.1 2.1 0 0 1-2.095-2.102 2.1 2.1 0 0 1 2.095-2.102 2.1 2.1 0 0 1 2.096 2.102 2.1 2.1 0 0 1-2.096 2.102zm16.357-6.395H3.243V9.302h32.712v55.812z" fill="#FFF" fill-rule="evenodd"/></svg>