<svg width="53" height="75" viewBox="0 0 53 75" xmlns="http://www.w3.org/2000/svg"><title>D7BCE45F-E26B-4B48-B1CA-F9CDAC92FB62</title><path d="M50.168 0H2.66A2.495 2.495 0 0 0 .177 2.502v69.702c0 1.38 1.114 2.502 2.482 2.502h47.51c1.368 0 2.481-1.123 2.481-2.502V2.502A2.494 2.494 0 0 0 50.168 0zM24.937 3.276h2.954a.357.357 0 0 1 0 .715h-2.954a.356.356 0 0 1-.355-.357c0-.198.158-.358.355-.358zm1.477 69.583a1.899 1.899 0 0 1-1.892-1.906 1.9 1.9 0 0 1 1.892-1.907c1.044 0 1.89.854 1.89 1.907a1.899 1.899 0 0 1-1.89 1.906zm23.045-5.838H3.263V6.97h46.196v60.05z" fill="#FFF" fill-rule="evenodd"/></svg>