<?xml version="1.0" encoding="UTF-8"?>
<svg width="53px" height="75px" viewBox="0 0 53 75" version="1.1" xmlns="http://www.w3.org/2000/svg" xmlns:xlink="http://www.w3.org/1999/xlink">
    <!-- Generator: sketchtool 41.2 (35397) - http://www.bohemiancoding.com/sketch -->
    <title>D7BCE45F-E26B-4B48-B1CA-F9CDAC92FB62</title>
    <desc>Created with sketchtool.</desc>
    <defs></defs>
    <g id="Comps" stroke="none" stroke-width="1" fill="none" fill-rule="evenodd">
        <g id="Colonial-Life" transform="translate(-1147.000000, -2490.000000)" fill="#FFFFFF">
            <g id="Stats" transform="translate(-4.000000, 527.000000)">
                <g id="Colonial-Life-Stats" transform="translate(1.000000, 1110.000000)">
                    <g id="Group-5" transform="translate(106.000000, 778.000000)">
                        <g id="tablet" transform="translate(1044.000000, 75.000000)">
                            <g id="Capa_1">
                                <path d="M50.1681818,0 L2.65909091,0 C1.29054545,0 0.177272727,1.12237253 0.177272727,2.50210438 L0.177272727,72.2035835 C0.177272727,73.5833153 1.29054545,74.7056878 2.65909091,74.7056878 L50.1681818,74.7056878 C51.5367273,74.7056878 52.65,73.5833153 52.65,72.2035835 L52.65,2.50210438 C52.65,1.12237253 51.5367273,0 50.1681818,0 Z M24.9366,3.27632696 L27.8913818,3.27632696 C28.0863818,3.27632696 28.2459273,3.43646164 28.2459273,3.63377044 C28.2459273,3.83107924 28.0863818,3.99121392 27.8913818,3.99121392 L24.9366,3.99121392 C24.7408909,3.99121392 24.5820545,3.83107924 24.5820545,3.63377044 C24.5820545,3.43646164 24.7401818,3.27632696 24.9366,3.27632696 Z M26.4136364,72.8591348 C25.3691455,72.8591348 24.5224909,72.0055598 24.5224909,70.9525313 C24.5224909,69.8995028 25.3691455,69.0459277 26.4136364,69.0459277 C27.4581273,69.0459277 28.3047818,69.8995028 28.3047818,70.9525313 C28.3047818,72.0055598 27.4581273,72.8591348 26.4136364,72.8591348 Z M49.4590909,67.020653 L3.26252727,67.020653 L3.26252727,6.97014791 L49.4590909,6.97014791 L49.4590909,67.020653 Z" id="Shape"></path>
                            </g>
                        </g>
                    </g>
                </g>
            </g>
        </g>
    </g>
</svg>